# This file uses centimeters as units for non-parametric coordinates.

v -1.872168 2.891041 0.000001
v -0.515038 5.042747 0.000001
v -0.000030 5.511002 0.000001
v 0.514977 5.042747 0.000001
v 1.872107 2.891041 0.000001
v 2.284084 2.562004 0.000001
v -2.284145 2.562004 0.000001
v -3.881432 -1.289150 0.000001
v -5.508453 0.666472 0.000001
v -5.794640 1.300970 0.000001
v -5.190159 1.646074 0.000001
v -2.724384 2.271866 0.000001
v -3.695805 -1.782642 0.000001
v -0.526730 -4.491821 0.000001
v -2.889416 -5.434895 0.000001
v -3.581295 -5.511002 0.000001
v -3.722713 -4.829464 0.000001
v -3.555912 -2.290993 0.000001
v -0.000030 -4.467777 0.000001
v 3.555851 -2.290993 0.000001
v 3.722652 -4.829464 0.000001
v 3.581234 -5.511002 0.000001
v 2.889355 -5.434895 0.000001
v 0.526670 -4.491821 0.000001
v 3.695744 -1.782642 0.000001
v 2.724323 2.271866 0.000001
v 5.190098 1.646074 0.000001
v 5.794579 1.300970 0.000001
v 5.508392 0.666472 0.000001
v 3.881371 -1.289150 0.000001
v 0.974936 0.735323 -2.143515
v -0.948518 0.748461 -2.143515
v -0.000030 3.723778 -1.514660
v 1.888660 2.017746 -1.335510
v 0.692399 3.356865 -1.500044
v -0.692460 3.356861 -1.500044
v -1.885820 2.013756 -1.335510
v 1.556822 -1.098050 -2.143515
v 4.097729 0.752680 -1.514660
v 3.058834 -1.570763 -1.335510
v 3.962746 -0.019241 -1.500044
v 3.534801 1.297838 -1.500044
v -0.007008 -2.217999 -2.143515
v 2.538326 -4.062637 -1.514660
v 0.007564 -3.792576 -1.335510
v 1.762472 -4.172798 -1.500044
v 2.882847 -3.358799 -1.500044
v -1.555391 -1.076792 -2.143515
v -2.523197 -4.067574 -1.514660
v -3.048401 -1.577223 -1.335510
v -2.867718 -3.363735 -1.500044
v -1.747343 -4.177734 -1.500044
v -4.091988 0.744696 -1.514660
v -3.529060 1.289852 -1.500044
v -3.957005 -0.027226 -1.500044
v 0.974936 0.735323 2.143517
v -0.948518 0.748461 2.143517
v -0.000030 3.723778 1.514664
v 1.888660 2.017746 1.335512
v 0.692399 3.356865 1.500048
v -0.692460 3.356861 1.500046
v -1.885820 2.013756 1.335512
v 1.556822 -1.098050 2.143517
v 4.097729 0.752680 1.514664
v 3.058834 -1.570763 1.335512
v 3.962746 -0.019241 1.500048
v 3.534801 1.297838 1.500046
v -0.007008 -2.217999 2.143517
v 2.538326 -4.062637 1.514664
v 0.007564 -3.792576 1.335512
v 1.762472 -4.172798 1.500048
v 2.882847 -3.358799 1.500046
v -1.555391 -1.076792 2.143517
v -2.523197 -4.067574 1.514664
v -3.048401 -1.577223 1.335512
v -2.867718 -3.363735 1.500048
v -1.747343 -4.177734 1.500046
v -4.091988 0.744696 1.514664
v -3.529060 1.289852 1.500048
v -3.957005 -0.027226 1.500046
vt 0.424104 0.558931
vt 0.574295 0.559919
vt 0.500182 0.784064
vt 0.341366 0.674763
vt 0.448766 0.760089
vt 0.551593 0.760061
vt 0.658890 0.674401
vt 0.450471 0.934943
vt 0.500271 0.963423
vt 0.550046 0.934907
vt 0.693285 0.793339
vt 0.307077 0.793550
vt 0.726766 0.767815
vt 0.273499 0.768183
vt 0.378632 0.415785
vt 0.188027 0.557711
vt 0.242901 0.372891
vt 0.194940 0.501402
vt 0.226742 0.599187
vt 0.029170 0.557057
vt 0.017473 0.613220
vt 0.059975 0.651747
vt 0.238877 0.744228
vt 0.119331 0.376988
vt 0.133081 0.337214
vt 0.500719 0.328304
vt 0.306839 0.190886
vt 0.499570 0.185961
vt 0.362528 0.180060
vt 0.279357 0.240523
vt 0.258372 0.039602
vt 0.201343 0.045833
vt 0.177835 0.098160
vt 0.145164 0.296885
vt 0.457489 0.069706
vt 0.499565 0.070492
vt 0.621644 0.417384
vt 0.692426 0.190529
vt 0.756665 0.372305
vt 0.719930 0.240147
vt 0.636725 0.179730
vt 0.821328 0.097685
vt 0.797779 0.045372
vt 0.740749 0.039186
vt 0.541655 0.069522
vt 0.854227 0.296359
vt 0.866482 0.336618
vt 0.811918 0.557132
vt 0.773228 0.598624
vt 0.804976 0.500821
vt 0.940052 0.651035
vt 0.982527 0.612473
vt 0.970787 0.556322
vt 0.880411 0.376347
vt 0.761268 0.743719
vt 0.424104 0.558931
vt 0.574295 0.559919
vt 0.500182 0.784064
vt 0.341366 0.674763
vt 0.448766 0.760089
vt 0.551593 0.760061
vt 0.658890 0.674401
vt 0.450471 0.934943
vt 0.500271 0.963423
vt 0.550046 0.934907
vt 0.693285 0.793339
vt 0.307077 0.793550
vt 0.726766 0.767815
vt 0.273499 0.768183
vt 0.378632 0.415785
vt 0.188027 0.557711
vt 0.242901 0.372891
vt 0.194940 0.501402
vt 0.226742 0.599187
vt 0.029170 0.557057
vt 0.017473 0.613220
vt 0.059975 0.651747
vt 0.238877 0.744228
vt 0.119331 0.376988
vt 0.133081 0.337214
vt 0.500719 0.328304
vt 0.306839 0.190886
vt 0.499570 0.185961
vt 0.362528 0.180060
vt 0.279357 0.240523
vt 0.258372 0.039602
vt 0.201343 0.045833
vt 0.177835 0.098160
vt 0.145164 0.296885
vt 0.457489 0.069706
vt 0.499565 0.070492
vt 0.621644 0.417384
vt 0.692426 0.190529
vt 0.756665 0.372305
vt 0.719930 0.240147
vt 0.636725 0.179730
vt 0.821328 0.097685
vt 0.797779 0.045372
vt 0.740749 0.039186
vt 0.541655 0.069522
vt 0.854227 0.296359
vt 0.866482 0.336618
vt 0.811918 0.557132
vt 0.773228 0.598624
vt 0.804976 0.500821
vt 0.940052 0.651035
vt 0.982527 0.612473
vt 0.970787 0.556322
vt 0.880411 0.376347
vt 0.761268 0.743719
vn 0.096805 0.131815 -0.986536
vn -0.105232 0.146411 -0.983611
vn 0.000287 0.456036 -0.889961
vn 0.407547 0.561084 -0.720479
vn 0.489425 0.460759 -0.740382
vn -0.490702 0.459783 -0.740143
vn -0.407209 0.560332 -0.721255
vn 0.615283 0.558346 -0.556486
vn -0.000000 0.646538 -0.762882
vn -0.615543 0.557859 -0.556687
vn -0.776854 0.529903 -0.340147
vn 0.777716 0.530490 -0.337249
vn -0.524167 0.721450 -0.452503
vn 0.524947 0.722524 -0.449877
vn 0.155278 -0.051334 -0.986536
vn 0.434077 0.140857 -0.889796
vn 0.659696 -0.214606 -0.720240
vn 0.589479 -0.323012 -0.740390
vn 0.286068 0.609438 -0.739425
vn 0.721296 -0.412809 -0.556166
vn 0.615881 0.199473 -0.762168
vn 0.340937 0.758874 -0.554862
vn 0.264199 0.903583 -0.337249
vn 0.744878 -0.575606 -0.337393
vn 0.849794 -0.276031 -0.449062
vn -0.000924 -0.180303 -0.983611
vn 0.268177 -0.369096 -0.889859
vn -0.000447 -0.693072 -0.720869
vn -0.124942 -0.659655 -0.741111
vn 0.668509 -0.083781 -0.738970
vn -0.169642 -0.812461 -0.557789
vn 0.379039 -0.524413 -0.762444
vn 0.827608 -0.089951 -0.554052
vn 0.941689 0.028083 -0.335310
vn -0.316830 -0.885304 -0.340377
vn 0.000130 -0.892428 -0.451189
vn -0.163396 -0.052167 -0.985180
vn -0.267926 -0.368785 -0.890064
vn -0.658606 -0.213738 -0.721494
vn -0.665517 -0.084846 -0.741545
vn 0.126918 -0.661185 -0.739409
vn -0.824239 -0.089617 -0.559106
vn -0.381005 -0.521701 -0.763324
vn 0.170026 -0.814028 -0.555382
vn 0.317564 -0.886326 -0.337014
vn -0.939261 0.027796 -0.342075
vn -0.847701 -0.275520 -0.453311
vn -0.433355 0.140988 -0.890127
vn -0.286542 0.607182 -0.741096
vn -0.588885 -0.324682 -0.740132
vn -0.340291 0.756636 -0.558304
vn -0.613907 0.200110 -0.763593
vn -0.720625 -0.412847 -0.557007
vn -0.744004 -0.575200 -0.340004
vn -0.263906 0.902582 -0.340145
vn 0.096805 0.131815 0.986536
vn 0.000286 0.456036 0.889962
vn -0.105232 0.146411 0.983611
vn 0.407547 0.561084 0.720479
vn 0.489425 0.460758 0.740381
vn -0.490703 0.459783 0.740142
vn -0.407209 0.560333 0.721255
vn 0.615284 0.558346 0.556486
vn -0.000000 0.646538 0.762882
vn -0.615543 0.557859 0.556687
vn -0.776854 0.529903 0.340147
vn 0.777716 0.530490 0.337249
vn -0.524167 0.721450 0.452503
vn 0.524947 0.722524 0.449877
vn 0.155277 -0.051334 0.986536
vn 0.434076 0.140858 0.889796
vn 0.659696 -0.214606 0.720239
vn 0.589479 -0.323013 0.740390
vn 0.286068 0.609439 0.739425
vn 0.721296 -0.412809 0.556166
vn 0.615882 0.199473 0.762168
vn 0.340937 0.758874 0.554862
vn 0.264199 0.903583 0.337249
vn 0.744878 -0.575606 0.337393
vn 0.849794 -0.276032 0.449062
vn -0.000924 -0.180303 0.983611
vn 0.268177 -0.369096 0.889859
vn -0.000448 -0.693072 0.720868
vn -0.124943 -0.659655 0.741111
vn 0.668509 -0.083781 0.738970
vn -0.169642 -0.812461 0.557789
vn 0.379040 -0.524413 0.762443
vn 0.827609 -0.089951 0.554051
vn 0.941689 0.028083 0.335310
vn -0.316830 -0.885304 0.340377
vn 0.000130 -0.892429 0.451189
vn -0.163396 -0.052167 0.985180
vn -0.267925 -0.368786 0.890064
vn -0.658606 -0.213737 0.721494
vn -0.665517 -0.084846 0.741545
vn 0.126918 -0.661186 0.739409
vn -0.824239 -0.089617 0.559106
vn -0.381005 -0.521700 0.763324
vn 0.170026 -0.814028 0.555382
vn 0.317564 -0.886326 0.337014
vn -0.939261 0.027796 0.342076
vn -0.847701 -0.275520 0.453311
vn -0.433355 0.140988 0.890127
vn -0.286542 0.607182 0.741096
vn -0.588885 -0.324682 0.740132
vn -0.340291 0.756637 0.558304
vn -0.613907 0.200110 0.763593
vn -0.720625 -0.412847 0.557007
vn -0.744004 -0.575200 0.340004
vn -0.263906 0.902582 0.340145
s 1
f 31/1/1 32/2/2 33/3/3
f 34/4/4 31/1/1 35/5/5
f 35/5/5 31/1/1 33/3/3
f 33/3/3 32/2/2 36/6/6
f 36/6/6 32/2/2 37/7/7
f 4/8/8 33/3/3 3/9/9
f 33/3/3 2/10/10 3/9/9
f 2/10/10 37/7/7 1/11/11
f 34/4/4 35/5/5 4/8/8
f 34/4/4 4/8/8 5/12/12
f 35/5/5 33/3/3 4/8/8
f 33/3/3 36/6/6 2/10/10
f 36/6/6 37/7/7 2/10/10
f 1/11/11 37/7/7 7/13/13
f 34/4/4 5/12/12 6/14/14
f 38/15/15 31/1/1 39/16/16
f 40/17/17 38/15/15 41/18/18
f 41/18/18 38/15/15 39/16/16
f 39/16/16 31/1/1 42/19/19
f 42/19/19 31/1/1 34/4/4
f 29/20/20 39/16/16 28/21/21
f 39/16/16 27/22/22 28/21/21
f 27/22/22 34/4/4 26/23/23
f 40/17/17 41/18/18 29/20/20
f 40/17/17 29/20/20 30/24/24
f 41/18/18 39/16/16 29/20/20
f 39/16/16 42/19/19 27/22/22
f 42/19/19 34/4/4 27/22/22
f 26/23/23 34/4/4 6/14/14
f 40/17/17 30/24/24 25/25/25
f 43/26/26 38/15/15 44/27/27
f 45/28/28 43/26/26 46/29/29
f 46/29/29 43/26/26 44/27/27
f 44/27/27 38/15/15 47/30/30
f 47/30/30 38/15/15 40/17/17
f 23/31/31 44/27/27 22/32/32
f 44/27/27 21/33/33 22/32/32
f 21/33/33 40/17/17 20/34/34
f 45/28/28 46/29/29 23/31/31
f 45/28/28 23/31/31 24/35/35
f 46/29/29 44/27/27 23/31/31
f 44/27/27 47/30/30 21/33/33
f 47/30/30 40/17/17 21/33/33
f 20/34/34 40/17/17 25/25/25
f 45/28/28 24/35/35 19/36/36
f 48/37/37 43/26/26 49/38/38
f 50/39/39 48/37/37 51/40/40
f 51/40/40 48/37/37 49/38/38
f 49/38/38 43/26/26 52/41/41
f 52/41/41 43/26/26 45/28/28
f 17/42/42 49/38/38 16/43/43
f 49/38/38 15/44/44 16/43/43
f 15/44/44 45/28/28 14/45/45
f 50/39/39 51/40/40 17/42/42
f 50/39/39 17/42/42 18/46/46
f 51/40/40 49/38/38 17/42/42
f 49/38/38 52/41/41 15/44/44
f 52/41/41 45/28/28 15/44/44
f 14/45/45 45/28/28 19/36/36
f 50/39/39 18/46/46 13/47/47
f 32/2/2 48/37/37 53/48/48
f 37/7/7 32/2/2 54/49/49
f 54/49/49 32/2/2 53/48/48
f 53/48/48 48/37/37 55/50/50
f 55/50/50 48/37/37 50/39/39
f 11/51/51 53/48/48 10/52/52
f 53/48/48 9/53/53 10/52/52
f 9/53/53 50/39/39 8/54/54
f 37/7/7 54/49/49 11/51/51
f 37/7/7 11/51/51 12/55/55
f 54/49/49 53/48/48 11/51/51
f 53/48/48 55/50/50 9/53/53
f 55/50/50 50/39/39 9/53/53
f 8/54/54 50/39/39 13/47/47
f 37/7/7 12/55/55 7/13/13
f 32/2/2 31/1/1 48/37/37
f 31/1/1 38/15/15 48/37/37
f 38/15/15 43/26/26 48/37/37
s 8
f 56/56/56 58/58/57 57/57/58
f 59/59/59 60/60/60 56/56/56
f 60/60/60 58/58/57 56/56/56
f 58/58/57 61/61/61 57/57/58
f 61/61/61 62/62/62 57/57/58
f 4/63/63 3/64/64 58/58/57
f 58/58/57 3/64/64 2/65/65
f 2/65/65 1/66/66 62/62/62
f 59/59/59 4/63/63 60/60/60
f 59/59/59 5/67/67 4/63/63
f 60/60/60 4/63/63 58/58/57
f 58/58/57 2/65/65 61/61/61
f 61/61/61 2/65/65 62/62/62
f 1/66/66 7/68/68 62/62/62
f 59/59/59 6/69/69 5/67/67
f 63/70/70 64/71/71 56/56/56
f 65/72/72 66/73/73 63/70/70
f 66/73/73 64/71/71 63/70/70
f 64/71/71 67/74/74 56/56/56
f 67/74/74 59/59/59 56/56/56
f 29/75/75 28/76/76 64/71/71
f 64/71/71 28/76/76 27/77/77
f 27/77/77 26/78/78 59/59/59
f 65/72/72 29/75/75 66/73/73
f 65/72/72 30/79/79 29/75/75
f 66/73/73 29/75/75 64/71/71
f 64/71/71 27/77/77 67/74/74
f 67/74/74 27/77/77 59/59/59
f 26/78/78 6/69/69 59/59/59
f 65/72/72 25/80/80 30/79/79
f 68/81/81 69/82/82 63/70/70
f 70/83/83 71/84/84 68/81/81
f 71/84/84 69/82/82 68/81/81
f 69/82/82 72/85/85 63/70/70
f 72/85/85 65/72/72 63/70/70
f 23/86/86 22/87/87 69/82/82
f 69/82/82 22/87/87 21/88/88
f 21/88/88 20/89/89 65/72/72
f 70/83/83 23/86/86 71/84/84
f 70/83/83 24/90/90 23/86/86
f 71/84/84 23/86/86 69/82/82
f 69/82/82 21/88/88 72/85/85
f 72/85/85 21/88/88 65/72/72
f 20/89/89 25/80/80 65/72/72
f 70/83/83 19/91/91 24/90/90
f 73/92/92 74/93/93 68/81/81
f 75/94/94 76/95/95 73/92/92
f 76/95/95 74/93/93 73/92/92
f 74/93/93 77/96/96 68/81/81
f 77/96/96 70/83/83 68/81/81
f 17/97/97 16/98/98 74/93/93
f 74/93/93 16/98/98 15/99/99
f 15/99/99 14/100/100 70/83/83
f 75/94/94 17/97/97 76/95/95
f 75/94/94 18/101/101 17/97/97
f 76/95/95 17/97/97 74/93/93
f 74/93/93 15/99/99 77/96/96
f 77/96/96 15/99/99 70/83/83
f 14/100/100 19/91/91 70/83/83
f 75/94/94 13/102/102 18/101/101
f 57/57/58 78/103/103 73/92/92
f 62/62/62 79/104/104 57/57/58
f 79/104/104 78/103/103 57/57/58
f 78/103/103 80/105/105 73/92/92
f 80/105/105 75/94/94 73/92/92
f 11/106/106 10/107/107 78/103/103
f 78/103/103 10/107/107 9/108/108
f 9/108/108 8/109/109 75/94/94
f 62/62/62 11/106/106 79/104/104
f 62/62/62 12/110/110 11/106/106
f 79/104/104 11/106/106 78/103/103
f 78/103/103 9/108/108 80/105/105
f 80/105/105 9/108/108 75/94/94
f 8/109/109 13/102/102 75/94/94
f 62/62/62 7/68/68 12/110/110
f 57/57/58 73/92/92 56/56/56
f 56/56/56 73/92/92 63/70/70
f 63/70/70 73/92/92 68/81/81
